<svg width="32" height="32" viewBox="0 0 32 32" fill="none" xmlns="http://www.w3.org/2000/svg">
<g id="Social Icons / White / Dribbble">
<path id="BG" opacity="0.1" fill-rule="evenodd" clip-rule="evenodd" d="M0 16C0 7.16344 7.16344 0 16 0C24.8366 0 32 7.16344 32 16C32 24.8366 24.8366 32 16 32C7.16344 32 0 24.8366 0 16Z" fill="white"/>
<path id="Path" fill-rule="evenodd" clip-rule="evenodd" d="M24.5335 15.9882C24.5335 16.5653 24.4747 17.1416 24.3593 17.7033C24.2468 18.2517 24.0801 18.7901 23.8618 19.3048C23.6485 19.8104 23.3839 20.2976 23.0747 20.752C22.7701 21.2035 22.4192 21.627 22.0338 22.0131C21.6475 22.3976 21.2225 22.7475 20.7712 23.0534C20.3154 23.3604 19.8275 23.6246 19.3216 23.8389C18.8061 24.0561 18.2665 24.2226 17.7186 24.3349C17.1561 24.4506 16.5777 24.5096 15.9997 24.5096C15.4214 24.5096 14.843 24.4506 14.2813 24.3349C13.7326 24.2226 13.1929 24.0561 12.6779 23.8389C12.1721 23.6246 11.6837 23.3604 11.2278 23.0534C10.7766 22.7475 10.3516 22.3976 9.96611 22.0131C9.58027 21.627 9.2294 21.2035 8.92439 20.752C8.61687 20.2976 8.35184 19.8104 8.13768 19.3048C7.9193 18.7901 7.75224 18.2517 7.63931 17.7033C7.52515 17.1416 7.4668 16.5653 7.4668 15.9882C7.4668 15.4107 7.52511 14.8331 7.63934 14.2726C7.75227 13.7242 7.91934 13.185 8.13771 12.6711C8.35187 12.1652 8.6169 11.6775 8.92442 11.2231C9.22943 10.7713 9.5803 10.3485 9.96614 9.96195C10.3516 9.57746 10.7766 9.2284 11.2279 8.923C11.6837 8.61466 12.1721 8.35047 12.6779 8.13575C13.193 7.9181 13.7326 7.75127 14.2814 7.63977C14.8431 7.52494 15.4214 7.46667 15.9998 7.46667C16.5777 7.46667 17.1561 7.52494 17.7186 7.63977C18.2665 7.7513 18.8061 7.91813 19.3216 8.13575C19.8275 8.35044 20.3154 8.61466 20.7713 8.923C21.2225 9.2284 21.6476 9.57746 22.0338 9.96195C22.4193 10.3485 22.7701 10.7713 23.0747 11.2231C23.3839 11.6775 23.6485 12.1652 23.8618 12.6711C24.0801 13.185 24.2468 13.7242 24.3593 14.2726C24.4747 14.8331 24.5335 15.4107 24.5335 15.9882ZM12.8904 9.40605C10.8582 10.3643 9.34143 12.2342 8.86848 14.4878C9.0606 14.4894 12.0974 14.5277 15.5963 13.5994C14.335 11.3617 12.9875 9.53549 12.8904 9.40605ZM16.2001 14.72C12.4479 15.8417 8.84724 15.761 8.71808 15.756C8.71597 15.8342 8.71223 15.9099 8.71223 15.9882C8.71223 17.8576 9.41851 19.5619 10.5794 20.8506C10.5769 20.8468 12.5712 17.3138 16.5039 16.0439C16.5989 16.0123 16.6956 15.984 16.7914 15.9566C16.6085 15.543 16.4089 15.1286 16.2001 14.72ZM20.8125 10.5266C19.5295 9.39689 17.8448 8.71164 15.9997 8.71164C15.4076 8.71164 14.833 8.78321 14.2825 8.91552C14.3917 9.062 15.7605 10.8753 17.0068 13.1604C19.7566 12.131 20.7945 10.5532 20.8125 10.5266ZM17.2882 17.1624C17.2719 17.1677 17.2557 17.1724 17.2398 17.1782C12.9401 18.675 11.536 21.6914 11.5208 21.7244C12.7579 22.6851 14.3097 23.2647 15.9998 23.2647C17.009 23.2647 17.9703 23.0595 18.8449 22.688C18.737 22.0522 18.3136 19.8237 17.2882 17.1624ZM20.072 22.0231C21.7083 20.9205 22.8705 19.1696 23.1946 17.1415C23.0446 17.0933 21.0058 16.4487 18.6536 16.8253C19.6095 19.4484 19.9978 21.5846 20.072 22.0231ZM17.5678 14.2448C17.7369 14.5918 17.9007 14.945 18.0519 15.2999C18.1057 15.4273 18.1582 15.5521 18.2095 15.6769C20.7129 15.3623 23.1793 15.8916 23.2847 15.9132C23.2681 14.1882 22.6501 12.6049 21.6276 11.3654C21.6138 11.3849 20.445 13.0714 17.5678 14.2448Z" fill="white"/>
</g>
</svg>
